<svg width="100" height="100" viewBox="0 0 100 100" fill="none" xmlns="http://www.w3.org/2000/svg">
<path d="M19.8437 52.0312H25.625C26.25 52.0312 26.875 52.6562 26.875 53.2812V62.0312H44.5312L48.5937 53.5938L33.9062 48.4375C33.5938 48.2812 33.2812 48.125 33.2812 47.8125C33.125 47.5 33.125 47.1875 33.2812 46.875L35.9375 38.5938L40.1562 26.5625C40.3125 26.25 40.4687 25.9375 40.7812 25.9375C41.0937 25.7813 41.4062 25.7813 41.7188 25.9375L79.8438 39.0625C80.3125 39.2187 80.625 39.5312 80.625 40C80.625 40.4688 80.4687 40.9375 80 41.25L73.75 45.3125L68.9062 59.375C68.75 59.6875 68.5938 60 68.2813 60C68.125 60.1563 67.9687 60.1562 67.8125 60.1562C67.6562 60.1562 67.5 60.1562 67.3438 60.1562L50.9375 54.375L46.4062 63.75C46.25 64.2188 45.7812 64.375 45.3125 64.375H26.875V73.125C26.875 73.75 26.25 74.375 25.625 74.375H19.8437C19.2187 74.375 18.5938 73.75 18.5938 73.125V53.2812C18.5938 52.6562 19.0625 52.0312 19.8437 52.0312ZM42.0312 28.4375L38.5938 38.2812L65.625 47.8125L71.875 43.75L76.5625 40.625L42.0312 28.4375ZM70.4688 47.5L66.5625 50.1562C66.4062 50.3125 66.25 50.3125 66.0937 50.3125C66.0937 50.3125 66.0938 50.3125 65.9375 50.3125C65.9375 50.3125 65.9375 50.3125 65.7812 50.3125C65.625 50.3125 65.4687 50.3125 65.3125 50.3125L37.8125 40.625L35.7812 46.5625L66.875 57.5L70.4688 47.5ZM20.9375 71.875H24.375V54.5313H20.9375V71.875Z" fill="white"/>
<path d="M73.7492 48.5937C73.9055 48.2812 74.0617 47.9688 74.3742 47.9688C74.6867 47.8125 74.9992 47.8125 75.3117 47.9688L80.6242 49.8437C81.2492 50 81.5617 50.7813 81.4055 51.4063L77.968 61.0937C77.8117 61.5625 77.343 61.875 76.8742 61.875C76.718 61.875 76.5617 61.875 76.4055 61.875L71.093 60C70.7805 59.8438 70.468 59.6875 70.468 59.375C70.3117 59.0625 70.3117 58.75 70.468 58.4375L73.7492 48.5937ZM76.093 59.0625L78.593 51.7187L75.6242 50.625L73.1242 57.9687L76.093 59.0625Z" fill="white"/>
</svg>
