<svg width="100" height="101" viewBox="0 0 100 101" fill="none" xmlns="http://www.w3.org/2000/svg">
<path d="M77.1501 67.9501H62.9095H36.9218H27.1814H24.4502C23.8786 67.9501 23.3076 68.015 22.7779 67.6912C21.7884 67.0926 21.7884 65.944 21.7884 64.8282V60.8167V46.9547V32.2354C21.7884 29.9709 21.7048 27.6738 21.7884 25.4093C21.8861 22.7404 24.4916 23.2255 26.0943 23.2255H35.0124H60.8745C66.2529 23.2255 71.632 23.177 77.0111 23.2255C78.1814 23.2419 78.9895 24.1315 79.0313 25.49C79.0591 26.3475 79.0313 27.2207 79.0313 28.0941V40.5485V65.2472C79.0323 66.6395 78.5167 67.9015 77.1511 67.95C75.3675 68.0149 75.3534 71.2497 77.1511 71.1847C79.8405 71.0877 81.8049 68.6449 81.8191 65.5556V62.4664V49.2192C81.8191 41.3258 81.8886 33.4153 81.8191 25.5228C81.7914 22.4657 79.7706 20.0721 77.137 20.0073C76.6909 19.9909 76.2311 20.0073 75.7855 20.0073H67.7316H41.5211C35.6688 20.0073 29.8024 19.9909 23.95 20.0073C21.9015 20.0073 20.0761 21.2365 19.3097 23.5174C18.9476 24.5847 19.003 25.7169 19.003 26.8334V38.2527V64.7956C19.003 66.4457 19.1702 67.966 20.1315 69.3081C21.1346 70.6823 22.5839 71.1838 24.089 71.1838H30.6101H56.0816H76.0912H77.1502C78.9484 71.1838 78.9484 67.9491 77.1507 67.9491L77.1501 67.9501Z" fill="white"/>
<path d="M20.4772 61.2216H26.4414H40.7665H58.0863H72.9962C75.4208 61.2216 77.8596 61.335 80.2837 61.2216H80.3813C82.179 61.2216 82.179 57.9869 80.3813 57.9869H74.4171H60.092H42.7722H27.8623C25.4377 57.9869 22.9989 57.8735 20.5748 57.9869H20.4772C18.6795 57.9869 18.6795 61.2216 20.4772 61.2216Z" fill="white"/>
<path d="M38.9002 81.8924H59.0355H61.934C63.7317 81.8924 63.7317 78.6577 61.934 78.6577H41.7987H38.9002C37.1166 78.6572 37.1166 81.8924 38.9002 81.8924Z" fill="white"/>
<path d="M43.1768 69.6817V80.3733C43.1768 82.46 45.9634 82.46 45.9634 80.3733V69.6817C45.9634 67.595 43.1768 67.595 43.1768 69.6817Z" fill="white"/>
<path d="M54.8828 69.6817V80.3733C54.8828 82.46 57.6695 82.46 57.6695 80.3733V69.6817C57.6695 67.595 54.8828 67.595 54.8828 69.6817Z" fill="white"/>
</svg>
