<svg width="100" height="101" viewBox="0 0 100 101" fill="none" xmlns="http://www.w3.org/2000/svg">
<path d="M21.1237 82.8493H79.726C80.3867 82.8519 81.0109 82.5459 81.4134 82.0216C81.8101 81.5126 81.9465 80.8471 81.7812 80.2233C81.2288 78.1672 79.6799 76.5266 77.6593 75.8573V47.8816C78.3309 47.1258 78.7031 46.1508 78.7066 45.1394C78.7066 43.6422 77.9079 42.2591 76.6115 41.5107C75.3152 40.7624 73.7181 40.7624 72.4217 41.5107C71.1254 42.2591 70.3266 43.6422 70.3266 45.1394C70.3301 46.1508 70.7028 47.1257 71.3744 47.8816V55.7189C67.4569 59.0709 60.7099 62.9468 50.4243 62.9468C40.1592 62.9468 33.3989 59.0585 29.4742 55.6982V47.8816C30.1459 47.1258 30.5185 46.1508 30.522 45.1394C30.522 43.6422 29.7233 42.2591 28.4269 41.5107C27.1305 40.7624 25.5335 40.7624 24.2371 41.5107C22.9407 42.2591 22.142 43.6422 22.142 45.1394C22.1455 46.1508 22.5177 47.1257 23.1893 47.8816V75.8596C22.2704 76.166 21.4322 76.675 20.7365 77.3492C19.9334 78.1436 19.3573 79.1383 19.0675 80.2299C18.9045 80.8516 19.0404 81.5139 19.4354 82.0208C19.8378 82.5451 20.4621 82.8511 21.1227 82.8485L21.1237 82.8493ZM79.7541 80.7397C79.7475 80.7498 79.7361 80.7555 79.7238 80.7541H69.2794C69.4727 80.0312 69.855 79.3727 70.3877 78.8467C71.2071 78.0514 72.3053 77.6082 73.4473 77.6117H75.5863C76.528 77.6042 77.446 77.9063 78.1987 78.4714C78.9519 79.0365 79.4986 79.8335 79.7541 80.7397L79.7541 80.7397ZM74.5169 49.3297C74.8707 49.3253 75.2228 49.2754 75.5643 49.1811V51.1201C74.94 52.0438 74.2389 52.9132 73.4691 53.7198V49.1811C73.8107 49.2754 74.1627 49.3253 74.5169 49.3297H74.5169ZM75.5643 54.5673V75.5174H73.4691V56.7109C74.2061 56.0353 74.9058 55.3198 75.5643 54.5675V54.5673ZM74.5169 43.0446C75.0724 43.0446 75.6055 43.2655 75.9983 43.6583C76.391 44.0512 76.6116 44.5842 76.6116 45.1397C76.6116 45.6951 76.3911 46.2282 75.9983 46.621C75.6055 47.0138 75.0724 47.2348 74.5169 47.2348C73.961 47.2348 73.4284 47.0138 73.0356 46.621C72.6424 46.2282 72.4218 45.6951 72.4218 45.1397C72.4218 44.5842 72.6423 44.0511 73.0356 43.6583C73.4284 43.2655 73.9611 43.0446 74.5169 43.0446ZM50.4244 65.0418C60.277 65.0418 67.057 61.7476 71.3745 58.4614V75.8605C70.4556 76.1669 69.6178 76.6754 68.922 77.3493C68.1175 78.1428 67.541 79.138 67.2526 80.2309C67.2087 80.4037 67.1877 80.5817 67.1895 80.7596H33.6651C33.6668 80.5808 33.6458 80.4023 33.6019 80.2287C33.0504 78.1695 31.499 76.5265 29.4749 75.8575V58.4617C33.7927 61.7475 40.5721 65.0417 50.425 65.0417L50.4244 65.0418ZM26.3319 49.3295C26.6861 49.3251 27.0381 49.2751 27.3797 49.1809V53.706C26.6111 52.9024 25.9106 52.0366 25.2845 51.1177V49.1809C25.6261 49.2751 25.9781 49.3251 26.3319 49.3295H26.3319ZM27.3792 56.71L27.3797 75.5165H25.2845V54.5664C25.943 55.3187 26.6428 56.0341 27.3797 56.7098L27.3792 56.71ZM26.3319 43.0448C26.8878 43.0448 27.4204 43.2658 27.8132 43.6586C28.2065 44.0514 28.427 44.5845 28.427 45.1399C28.427 45.6953 28.2065 46.2284 27.8132 46.6212C27.4204 47.014 26.8877 47.235 26.3319 47.235C25.7764 47.235 25.2433 47.014 24.8506 46.6212C24.4578 46.2284 24.2372 45.6953 24.2372 45.1399C24.2372 44.5845 24.4577 44.0514 24.8506 43.6586C25.2434 43.2658 25.7765 43.0448 26.3319 43.0448ZM22.203 78.8463C23.0224 78.0511 24.1206 77.6079 25.2627 77.6114H27.4017C28.3429 77.6039 29.2609 77.906 30.0141 78.4711C30.7672 79.0362 31.3139 79.8332 31.5695 80.7394C31.5695 80.7394 31.5611 80.7538 31.5392 80.7538H21.0948C21.2886 80.0313 21.6713 79.3728 22.2031 78.8464L22.203 78.8463Z" fill="white"/>
<path d="M55.6626 52.4718C56.6736 52.4687 57.649 52.0961 58.4048 51.4245H65.09C65.6454 51.4245 66.1785 51.204 66.5713 50.8107C66.9641 50.4179 67.1846 49.8852 67.1846 49.3294V47.2347C67.1846 46.6788 66.9641 46.1462 66.5713 45.7534C66.1785 45.3601 65.6454 45.1396 65.09 45.1396H58.4048C58.1501 44.9156 57.8687 44.724 57.5666 44.5688L55.4811 39.3514L62.4022 37.074C63.1931 36.8122 63.8476 36.2476 64.2234 35.5041C64.5991 34.7601 64.6644 33.8982 64.4057 33.106L63.4241 30.1205L60.8056 22.1595V22.16C60.5452 21.3687 59.9809 20.7132 59.2374 20.3376C58.4939 19.9619 57.6315 19.897 56.8398 20.1569L31.9639 28.3357C31.2734 28.5615 30.7487 29.1288 30.5776 29.835C30.4071 30.5413 30.6145 31.2857 31.1261 31.8021L34.0839 34.7749L34.258 35.2987L32.2677 35.9524V35.952C31.7398 36.1256 31.3023 36.5022 31.0515 36.9984C30.8012 37.4947 30.7582 38.0699 30.9323 38.5982L31.9126 41.5824C32.0862 42.1106 32.4623 42.5482 32.9586 42.7989C33.4548 43.0497 34.0305 43.0927 34.5588 42.9191L36.5491 42.2654C36.809 43.0572 37.3733 43.713 38.1172 44.0887C38.8612 44.4644 39.7239 44.5293 40.5157 44.2689L49.499 41.3159L51.7291 46.9033V46.9037C51.5656 47.3452 51.4788 47.8112 51.4722 48.282C51.4722 49.3934 51.9137 50.4591 52.6998 51.2447C53.4854 52.0303 54.5512 52.4718 55.6625 52.4718L55.6626 52.4718ZM53.5675 48.282C53.5675 47.7266 53.788 47.1935 54.1812 46.8007C54.5741 46.4079 55.1067 46.1869 55.6626 46.1869C55.9243 46.1878 56.1838 46.2387 56.4272 46.3369L56.4469 46.343C56.9195 46.5341 57.3061 46.8906 57.5346 47.3456C57.7634 47.8011 57.8182 48.3241 57.6889 48.8168C57.5595 49.31 57.2553 49.7388 56.8327 50.0233C56.4101 50.3079 55.898 50.4288 55.3925 50.3631C54.8875 50.2978 54.4232 50.0501 54.0874 49.6669C53.7516 49.2837 53.5666 48.7914 53.5675 48.282L53.5675 48.282ZM65.0902 49.3294H59.704C59.9022 48.6454 59.9022 47.9186 59.704 47.2347H65.0902V49.3294ZM57.4949 22.1483C58.0442 21.9676 58.6356 22.2662 58.8166 22.8155L61.1095 29.7812L39.2167 36.9784L35.7862 33.5216L32.6175 30.3256L57.4949 22.1483ZM33.8984 40.9311L32.9168 37.9469L34.9071 37.2933L35.8887 40.2775L33.8984 40.9311ZM39.8554 42.2814H39.8558C39.5919 42.3682 39.3039 42.3467 39.0557 42.2218C38.8076 42.0964 38.6195 41.8781 38.5327 41.6141L37.3806 38.1021L37.7304 38.4541V38.4537C38.1215 38.8509 38.6559 39.0749 39.2135 39.0749C39.4371 39.0749 39.6598 39.0399 39.8725 38.9702L61.7653 31.7729L62.4189 33.7632V33.7628C62.5057 34.0267 62.4847 34.3147 62.3593 34.5629C62.2343 34.811 62.0156 34.9991 61.7517 35.0859L39.8554 42.2814ZM53.4824 40.0069L55.1387 44.1459C54.4329 44.2322 53.7613 44.4988 53.1883 44.9197L51.4882 40.6636L53.4824 40.0069Z" fill="white"/>
<path d="M38.4297 32.7707C38.5406 32.7707 38.6507 32.7536 38.7563 32.7194L56.8142 26.783C57.364 26.6023 57.663 26.0101 57.4819 25.4608C57.3013 24.911 56.709 24.612 56.1597 24.7931L38.1018 30.7282C37.6126 30.8886 37.3131 31.381 37.3947 31.8891C37.4762 32.3972 37.9151 32.7712 38.4297 32.7707L38.4297 32.7707Z" fill="white"/>
</svg>
